{
  "accessors": [
    {
      "bufferView": 2,
      "componentType": 5126,
      "count": 12263,
      "max": [
        42.563499450683594,
        42.077346801757812,
        37.888950347900391
      ],
      "min": [
        -38.567161560058594,
        -39.917373657226562,
        -37.917640686035156
      ],
      "type": "VEC3"
    },
    {
      "bufferView": 2,
      "byteOffset": 147156,
      "componentType": 5126,
      "count": 12263,
      "max": [
        0.99935758113861084,
        0.999988853931427,
        0.99992328882217407
      ],
      "min": [
        -0.99979704618453979,
        -0.99994415044784546,
        -0.99997985363006592
      ],
      "type": "VEC3"
    },
    {
      "bufferView": 3,
      "componentType": 5126,
      "count": 12263,
      "max": [
        1,
        0.99999606609344482,
        0.99444884061813354,
        1
      ],
      "min": [
        -0.99999982118606567,
        -0.99999970197677612,
        -0.97967797517776489,
        -1
      ],
      "type": "VEC4"
    },
    {
      "bufferView": 1,
      "componentType": 5126,
      "count": 12263,
      "max": [
        1.8562374114990234,
        1.8562372922897339
      ],
      "min": [
        -0.85623741149902344,
        -0.85623741149902344
      ],
      "type": "VEC2"
    },
    {
      "bufferView": 1,
      "byteOffset": 98104,
      "componentType": 5126,
      "count": 12263,
      "max": [
        1.8562374114990234,
        1.8562372922897339
      ],
      "min": [
        -0.85623741149902344,
        -0.85623741149902344
      ],
      "type": "VEC2"
    },
    {
      "bufferView": 1,
      "byteOffset": 196208,
      "componentType": 5126,
      "count": 12263,
      "max": [
        1.8562374114990234,
        1.8562372922897339
      ],
      "min": [
        -0.85623741149902344,
        -0.85623741149902344
      ],
      "type": "VEC2"
    },
    {
      "bufferView": 0,
      "componentType": 5125,
      "count": 52884,
      "max": [
        12262
      ],
      "min": [
        0
      ],
      "type": "SCALAR"
    },
    {
      "bufferView": 4,
      "componentType": 5126,
      "count": 194,
      "max": [
        3.3333332538604736
      ],
      "min": [
        0
      ],
      "type": "SCALAR"
    },
    {
      "bufferView": 5,
      "componentType": 5126,
      "count": 194,
      "max": [
        0.70710676908493042,
        0.70710676908493042,
        0.70710676908493042,
        1.8831393333584856e-07
      ],
      "min": [
        -0.7057114839553833,
        -0.70710676908493042,
        -0.70710676908493042,
        -1.8831393333584856e-07
      ],
      "type": "VEC4"
    }
  ],
  "animations": [
    {
      "channels": [
        {
          "sampler": 0,
          "target": {
            "node": 5,
            "path": "rotation"
          }
        }
      ],
      "name": "Take 001",
      "samplers": [
        {
          "input": 7,
          "interpolation": "LINEAR",
          "output": 8
        }
      ]
    }
  ],
  "asset": {
    "extras": {
      "author": "P3TroV! (https://sketchfab.com/T96X)",
      "license": "CC-BY-4.0 (http://creativecommons.org/licenses/by/4.0/)",
      "source": "https://sketchfab.com/models/6d1384a7bf66486d8204219e02fab438",
      "title": "##3December-Flu /  Having the Flu"
    },
    "generator": "Sketchfab-3.54.8-rc1",
    "version": "2.0"
  },
  "bufferViews": [
    {
      "buffer": 0,
      "byteLength": 211536,
      "byteOffset": 0,
      "name": "floatBufferViews",
      "target": 34963
    },
    {
      "buffer": 0,
      "byteLength": 294312,
      "byteOffset": 211536,
      "byteStride": 8,
      "name": "floatBufferViews",
      "target": 34962
    },
    {
      "buffer": 0,
      "byteLength": 294312,
      "byteOffset": 505848,
      "byteStride": 12,
      "name": "floatBufferViews",
      "target": 34962
    },
    {
      "buffer": 0,
      "byteLength": 196208,
      "byteOffset": 800160,
      "byteStride": 16,
      "name": "floatBufferViews",
      "target": 34962
    },
    {
      "buffer": 0,
      "byteLength": 776,
      "byteOffset": 996368,
      "name": "floatBufferViews"
    },
    {
      "buffer": 0,
      "byteLength": 3104,
      "byteOffset": 997144,
      "byteStride": 16,
      "name": "floatBufferViews"
    }
  ],
  "buffers": [
    {
      "byteLength": 1000248,
      "uri": "scene.bin"
    }
  ],
  "images": [
    {
      "uri": "textures/02_-_Default_baseColor.png"
    }
  ],
  "materials": [
    {
      "alphaMode": "BLEND",
      "doubleSided": true,
      "emissiveFactor": [
        0.0024789942173606,
        0.29871791193148267,
        0.31141529770794329
      ],
      "name": "02_-_Default",
      "pbrMetallicRoughness": {
        "baseColorFactor": [
          1,
          1,
          1,
          0.96530303959999997
        ],
        "baseColorTexture": {
          "index": 0,
          "texCoord": 0
        },
        "metallicFactor": 0,
        "roughnessFactor": 0
      }
    }
  ],
  "meshes": [
    {
      "name": "Sphere001_02 - Default_0",
      "primitives": [
        {
          "attributes": {
            "NORMAL": 1,
            "POSITION": 0,
            "TANGENT": 2,
            "TEXCOORD_0": 3,
            "TEXCOORD_1": 4,
            "TEXCOORD_2": 5
          },
          "indices": 6,
          "material": 0,
          "mode": 4
        }
      ]
    }
  ],
  "nodes": [
    {
      "children": [
        1
      ],
      "name": "RootNode (gltf orientation matrix)",
      "rotation": [
        -0.70710678118654746,
        -0,
        -0,
        0.70710678118654757
      ]
    },
    {
      "children": [
        2
      ],
      "name": "RootNode (model correction matrix)"
    },
    {
      "children": [
        3
      ],
      "matrix": [
        1,
        0,
        0,
        0,
        0,
        0,
        1,
        0,
        0,
        -1,
        0,
        0,
        0,
        0,
        0,
        1
      ],
      "name": "da38f18f4f5740c5abab81b46042e8f0.fbx"
    },
    {
      "children": [
        4
      ],
      "name": ""
    },
    {
      "children": [
        5
      ],
      "name": "RootNode"
    },
    {
      "children": [
        6
      ],
      "name": "Sphere001",
      "rotation": [
        -5.3385086573598528e-08,
        0.7071068286895752,
        -0.7071068286895752,
        5.3385086573598528e-08
      ],
      "translation": [
        0.25867566466331482,
        0,
        -4.2938780784606934
      ]
    },
    {
      "mesh": 0,
      "name": "Sphere001_02 - Default_0"
    }
  ],
  "samplers": [
    {
      "magFilter": 9729,
      "minFilter": 9987,
      "wrapS": 10497,
      "wrapT": 10497
    }
  ],
  "scene": 0,
  "scenes": [
    {
      "name": "OSG_Scene",
      "nodes": [
        0
      ]
    }
  ],
  "textures": [
    {
      "sampler": 0,
      "source": 0
    }
  ]
}

