{
  "accessors": [
    {
      "bufferView": 1,
      "componentType": 5126,
      "count": 65532,
      "max": [
        0.39264601469039917,
        0.70733702182769775,
        0.68719601631164551
      ],
      "min": [
        -1.4446289539337158,
        -0.53901797533035278,
        -0.60967397689819336
      ],
      "type": "VEC3"
    },
    {
      "bufferView": 1,
      "byteOffset": 786384,
      "componentType": 5126,
      "count": 65532,
      "max": [
        0.99999487400054932,
        0.99999278783798218,
        0.9999920129776001
      ],
      "min": [
        -0.99999213218688965,
        -0.99996036291122437,
        -0.99999761581420898
      ],
      "type": "VEC3"
    },
    {
      "bufferView": 0,
      "componentType": 5125,
      "count": 356934,
      "max": [
        65531
      ],
      "min": [
        0
      ],
      "type": "SCALAR"
    },
    {
      "bufferView": 1,
      "byteOffset": 1572768,
      "componentType": 5126,
      "count": 22328,
      "max": [
        0.39196100831031799,
        0.70475298166275024,
        0.6857219934463501
      ],
      "min": [
        -1.4603899717330933,
        -0.53819501399993896,
        -0.60793399810791016
      ],
      "type": "VEC3"
    },
    {
      "bufferView": 1,
      "byteOffset": 1840704,
      "componentType": 5126,
      "count": 22328,
      "max": [
        0.99992275238037109,
        0.99965089559555054,
        0.99994850158691406
      ],
      "min": [
        -0.99989551305770874,
        -0.99999386072158813,
        -0.99971812963485718
      ],
      "type": "VEC3"
    },
    {
      "bufferView": 0,
      "byteOffset": 1427736,
      "componentType": 5125,
      "count": 67116,
      "max": [
        22327
      ],
      "min": [
        0
      ],
      "type": "SCALAR"
    }
  ],
  "asset": {
    "extras": {
      "author": "ronnan (https://sketchfab.com/ronnan)",
      "license": "CC-BY-4.0 (http://creativecommons.org/licenses/by/4.0/)",
      "source": "https://sketchfab.com/models/22fa9afe14724d9bbcffcc1160d6c447",
      "title": "Neuron"
    },
    "generator": "Sketchfab-3.20.4",
    "version": "2.0"
  },
  "bufferViews": [
    {
      "buffer": 0,
      "byteLength": 1696200,
      "byteOffset": 0,
      "name": "floatBufferViews",
      "target": 34963
    },
    {
      "buffer": 0,
      "byteLength": 2108640,
      "byteOffset": 1696200,
      "byteStride": 12,
      "name": "floatBufferViews",
      "target": 34962
    }
  ],
  "buffers": [
    {
      "byteLength": 3804840,
      "uri": "scene.bin"
    }
  ],
  "materials": [
    {
      "doubleSided": true,
      "emissiveFactor": [
        0.0005397673928636223,
        0,
        0.0171493902
      ],
      "name": "initialShadingGroup",
      "pbrMetallicRoughness": {
        "baseColorFactor": [
          1,
          0.34715108509999998,
          0.4116062157,
          1
        ],
        "metallicFactor": 0,
        "roughnessFactor": 0.27610518290000002
      }
    }
  ],
  "meshes": [
    {
      "primitives": [
        {
          "attributes": {
            "NORMAL": 1,
            "POSITION": 0
          },
          "indices": 2,
          "material": 0,
          "mode": 4
        }
      ]
    },
    {
      "primitives": [
        {
          "attributes": {
            "NORMAL": 4,
            "POSITION": 3
          },
          "indices": 5,
          "material": 0,
          "mode": 4
        }
      ]
    }
  ],
  "nodes": [
    {
      "children": [
        1
      ],
      "name": "RootNode (gltf orientation matrix)",
      "rotation": [
        -0.70710678118654746,
        -0,
        -0,
        0.70710678118654757
      ]
    },
    {
      "children": [
        2
      ],
      "name": "RootNode (model correction matrix)"
    },
    {
      "children": [
        3,
        4
      ],
      "name": "Neuron_smooth_normals.obj.cleaner.materialmerger.gles"
    },
    {
      "mesh": 0,
      "name": ""
    },
    {
      "mesh": 1,
      "name": ""
    }
  ],
  "scene": 0,
  "scenes": [
    {
      "name": "OSG_Scene",
      "nodes": [
        0
      ]
    }
  ]
}

